<svg width="36" height="57" viewBox="0 0 36 57" fill="none" xmlns="http://www.w3.org/2000/svg">
<path d="M33.4344 19.8293H32.3712L30.8553 15.4291C30.7405 15.0957 30.4266 14.872 30.0741 14.872H20.4352V8.16449L30.3986 4.73204C30.83 4.58344 31.0593 4.11315 30.9106 3.68175L29.8342 0.557097C29.7629 0.349881 29.612 0.179569 29.4151 0.0835074C29.218 -0.0124444 28.9912 -0.0263249 28.7839 0.0450606L18.2634 3.66941C16.5972 4.24336 15.4779 5.81296 15.4779 7.57523V14.872H5.83895C5.48643 14.872 5.17258 15.0957 5.05779 15.4291L3.54184 19.8293H2.47866C1.11198 19.8293 0 20.9413 0 22.308C0 23.6746 1.11198 24.7866 2.47866 24.7866H3.38805L6.6698 55.6643C6.71442 56.0845 7.06892 56.4033 7.4914 56.4033H28.4216C28.8441 56.4033 29.1986 56.0845 29.2432 55.6643L32.525 24.7866H33.4344C34.8011 24.7866 35.913 23.6747 35.913 22.308C35.913 20.9412 34.8011 19.8293 33.4344 19.8293ZM17.1303 7.57523C17.1303 6.51789 17.802 5.57622 18.8017 5.23174L28.541 1.87641L29.0792 3.43873L19.3398 6.79407C19.0066 6.90886 18.7827 7.2226 18.7827 7.57523V14.872H17.1303V7.57523ZM27.6786 54.7509H8.23444L5.04975 24.7866H30.8632L27.6786 54.7509ZM33.4344 23.1342H2.47866C2.02303 23.1342 1.65244 22.7636 1.65244 22.308C1.65244 21.8523 2.02303 21.4817 2.47866 21.4817H4.1311C4.48362 21.4817 4.79748 21.258 4.91227 20.9246L6.4281 16.5244H29.4848L30.6234 19.8293H7.62656C7.17016 19.8293 6.80034 20.1992 6.80034 20.6555C6.80034 21.1118 7.17016 21.4817 7.62656 21.4817H31.7627C31.7753 21.4821 31.7883 21.4821 31.8011 21.4817H33.4344C33.89 21.4817 34.2606 21.8523 34.2606 22.308C34.2606 22.7636 33.89 23.1342 33.4344 23.1342Z" fill="#75492A"/>
</svg>
