<svg width="30" height="30" viewBox="0 0 30 30" fill="none" xmlns="http://www.w3.org/2000/svg">
<path d="M26.35 8.74976C26.134 8.37553 25.8247 8.06367 25.4523 7.8446C25.0799 7.62552 24.657 7.50671 24.225 7.49976H8.225L7.5 4.67476C7.42675 4.40205 7.26333 4.16219 7.03635 3.99422C6.80937 3.82626 6.5322 3.74009 6.25 3.74976H3.75C3.41848 3.74976 3.10054 3.88145 2.86612 4.11587C2.6317 4.35029 2.5 4.66824 2.5 4.99976C2.5 5.33128 2.6317 5.64922 2.86612 5.88364C3.10054 6.11806 3.41848 6.24976 3.75 6.24976H5.3L8.75 19.0748C8.82325 19.3475 8.98667 19.5873 9.21365 19.7553C9.44063 19.9233 9.7178 20.0094 10 19.9998H21.25C21.4808 19.9991 21.707 19.9345 21.9033 19.8131C22.0997 19.6918 22.2586 19.5184 22.3625 19.3123L26.4625 11.1123C26.6402 10.7398 26.7229 10.3291 26.7033 9.91686C26.6837 9.50463 26.5623 9.10367 26.35 8.74976Z" fill="white"/>
<path d="M9.375 26.25C10.4105 26.25 11.25 25.4105 11.25 24.375C11.25 23.3395 10.4105 22.5 9.375 22.5C8.33947 22.5 7.5 23.3395 7.5 24.375C7.5 25.4105 8.33947 26.25 9.375 26.25Z" fill="white"/>
<path d="M21.875 26.25C22.9105 26.25 23.75 25.4105 23.75 24.375C23.75 23.3395 22.9105 22.5 21.875 22.5C20.8395 22.5 20 23.3395 20 24.375C20 25.4105 20.8395 26.25 21.875 26.25Z" fill="white"/>
</svg>
