<svg width="56" height="56" viewBox="0 0 56 56" fill="white" xmlns="http://www.w3.org/2000/svg">
<g clip-path="url(#clip0_382_51)">
<path d="M9.30593 50.5283L54.6123 30.1794C55.4673 29.7955 55.999 28.9831 56 28.0591C56 28.0582 56 28.0573 56 28.0566C56 27.1338 55.4702 26.3214 54.6168 25.936L9.30823 5.47295C8.86953 5.27488 8.35262 5.3918 8.04189 5.75952C7.95909 5.85752 5.99067 8.20535 4.00957 12.1258C2.18049 15.7455 -7.02477e-07 21.4482 -9.91484e-07 28.0599C-1.28056e-06 34.6732 2.18126 40.3443 4.01099 43.9373C5.9933 47.8297 7.96336 50.1492 8.04637 50.2461C8.35721 50.6093 8.86996 50.7241 9.30593 50.5283ZM15.7737 10.7569C15.1969 11.7992 14.6637 12.8694 14.183 13.9508C14.1197 14.093 14.0898 14.2415 14.0898 14.3879C14.0898 14.8005 14.3284 15.1944 14.7298 15.3728C15.2734 15.6145 15.9101 15.3696 16.1517 14.8259C16.6308 13.7483 17.1654 12.6828 17.7449 11.6471L53.7301 27.8995C53.7797 27.9219 53.8455 27.9624 53.8455 28.0566C53.8455 28.0566 53.8455 28.0567 53.8455 28.0568C53.8454 28.1511 53.7794 28.1916 53.7297 28.2139L14.2898 45.9279C12.0496 42.365 8.82971 35.8829 8.82971 28.0597C8.82972 20.2283 12.0553 13.6906 14.299 10.0906L15.7737 10.7569ZM2.15468 28.0599C2.15468 21.8973 4.19386 16.5523 5.90449 13.1536C7.19795 10.5836 8.50509 8.70487 9.19306 7.78503L12.3186 9.19662C9.95037 13.0603 6.67514 19.8835 6.67514 28.0599C6.67514 36.2232 9.93997 42.9889 12.306 46.819L9.18999 48.2185C7.51525 46.0001 2.15468 38.1126 2.15468 28.0599Z" fill="#F1ECDC"/>
<path d="M15.0544 17.5845L15.0696 17.5417C15.2669 16.9807 14.9728 16.3655 14.4117 16.1676C13.8506 15.9697 13.2354 16.2641 13.0374 16.8253L13.0217 16.8705C12.9801 16.9886 12.9606 17.1091 12.9606 17.2275C12.9606 17.672 13.2379 18.0883 13.681 18.2439C14.2424 18.441 14.8573 18.1458 15.0544 17.5845Z" fill="#F1ECDC"/>
<path d="M24.7772 20.4589C24.7772 18.0829 22.8441 16.1499 20.4682 16.1499C18.0921 16.1499 16.1591 18.0829 16.1591 20.4589C16.1591 22.835 18.0922 24.768 20.4682 24.768C22.8442 24.768 24.7772 22.8349 24.7772 20.4589ZM18.3136 20.4589C18.3136 19.2709 19.2802 18.3044 20.4682 18.3044C21.6562 18.3044 22.6228 19.2709 22.6228 20.4589C22.6228 21.647 21.6562 22.6135 20.4682 22.6135C19.2802 22.6134 18.3136 21.647 18.3136 20.4589Z" fill="#F1ECDC"/>
<path d="M35.5499 31.7705C35.5499 29.3944 33.6168 27.4614 31.2409 27.4614C28.8648 27.4614 26.9319 29.3945 26.9319 31.7705C26.9319 34.1464 28.865 36.0795 31.2409 36.0795C33.6168 36.0795 35.5499 34.1464 35.5499 31.7705ZM29.0864 31.7705C29.0864 30.5824 30.053 29.6159 31.241 29.6159C32.429 29.6159 33.3956 30.5823 33.3956 31.7705C33.3956 32.9585 32.429 33.925 31.241 33.925C30.053 33.925 29.0864 32.9585 29.0864 31.7705Z" fill="#F1ECDC"/>
<path d="M21.0068 34.4637C21.0068 32.6817 19.5571 31.2319 17.775 31.2319C15.993 31.2319 14.5432 32.6817 14.5432 34.4637C14.5432 36.2458 15.993 37.6955 17.775 37.6955C19.5571 37.6955 21.0068 36.2458 21.0068 34.4637ZM16.6977 34.4637C16.6977 33.8697 17.1809 33.3865 17.7749 33.3865C18.3689 33.3865 18.8522 33.8697 18.8522 34.4637C18.8522 35.0578 18.3689 35.541 17.7749 35.541C17.1809 35.541 16.6977 35.0576 16.6977 34.4637Z" fill="#F1ECDC"/>
<path d="M44.208 28.7819C44.6104 28.3434 44.5804 27.6619 44.1418 27.2599L43.4954 26.6675C43.057 26.2654 42.3756 26.295 41.9735 26.7336C41.7838 26.9403 41.6903 27.2012 41.6903 27.4612C41.6903 27.7527 41.808 28.0432 42.0397 28.2556L42.6861 28.8481C43.1246 29.25 43.8061 29.2204 44.208 28.7819Z" fill="#F1ECDC"/>
<path d="M37.8071 26.3915L38.8843 24.5601C39.1859 24.0473 39.0149 23.3871 38.5021 23.0854C37.9892 22.7838 37.329 22.9549 37.0273 23.4677L35.9501 25.2991C35.8492 25.4707 35.8011 25.6587 35.8011 25.8443C35.8011 26.2134 35.9911 26.5731 36.3325 26.7738C36.8452 27.0754 37.5055 26.9042 37.8071 26.3915Z" fill="#F1ECDC"/>
<path d="M31.1267 25.0039C31.6735 24.7696 31.927 24.1362 31.6925 23.5894L30.3998 20.5731C30.1654 20.0262 29.532 19.7729 28.9852 20.0073C28.5767 20.1824 28.3319 20.5801 28.3319 20.9979C28.3319 21.1395 28.3601 21.2834 28.4194 21.4217L29.7121 24.4381C29.9465 24.9851 30.5799 25.2383 31.1267 25.0039Z" fill="#F1ECDC"/>
<path d="M23.9804 30.7051L25.8118 28.1736C26.1604 27.6914 26.0523 27.0179 25.5704 26.6693C25.0883 26.3207 24.4149 26.4287 24.0661 26.9107L22.2347 29.4423C22.0966 29.6331 22.0303 29.8539 22.0303 30.073C22.0303 30.4068 22.185 30.7359 22.4763 30.9466C22.9581 31.2951 23.6316 31.1872 23.9804 30.7051Z" fill="#F1ECDC"/>
<path d="M25.5603 39.7044C26.0748 39.4059 26.2501 38.7468 25.9516 38.232L24.3896 35.5389C24.0911 35.0243 23.4319 34.849 22.9171 35.1475C22.5726 35.3473 22.3802 35.7088 22.3802 36.0804C22.3802 36.2637 22.4271 36.4497 22.5259 36.6199L24.088 39.313C24.3864 39.8276 25.0457 40.0028 25.5603 39.7044Z" fill="#F1ECDC"/>
<path d="M16.8087 29.3045C17.2318 28.8864 17.2355 28.2043 16.8174 27.7812L13.6933 24.6211C13.275 24.1981 12.5929 24.1942 12.1698 24.6124C11.9567 24.8231 11.8499 25.1007 11.8499 25.3785C11.8499 25.6522 11.9536 25.9258 12.1612 26.1358L15.2853 29.2958C15.7035 29.719 16.3856 29.7228 16.8087 29.3045Z" fill="#F1ECDC"/>
</g>
<defs>
<clipPath id="clip0_382_51">
<rect width="56" height="56" fill="white" transform="translate(56) rotate(90)"/>
</clipPath>
</defs>
</svg>
