<svg width="54" height="54" viewBox="0 0 54 54" fill="none" xmlns="http://www.w3.org/2000/svg">
<path d="M49.6969 23.3927C48.9284 23.1266 48.1248 22.9754 47.3121 22.9439C47.1506 22.9314 46.9531 22.917 46.7933 22.8973C46.8732 22.7914 46.9666 22.6747 47.0446 22.5759C47.7187 21.8247 48.2045 20.9239 48.4619 19.9479C48.9824 17.6745 49.0982 13.3959 46.2306 11.7803C45.6017 11.443 44.9103 11.238 44.1992 11.1779C43.4881 11.1179 42.7722 11.204 42.0956 11.4312C40.2831 11.9753 38.7498 13.1968 37.8143 14.8418C36.7929 16.8164 37.3404 18.8242 37.7811 20.4371C38.0504 21.4352 38.3107 22.3776 37.9884 22.681C37.6142 23.04 36.4976 22.7393 35.417 22.444C35.0786 22.3543 34.7313 22.2645 34.383 22.1747C33.8137 20.9165 32.8938 19.849 31.7336 19.0999C30.5734 18.3508 29.2219 17.9519 27.8408 17.9509C27.8157 17.9509 27.7924 17.9509 27.7672 17.9509C27.6801 17.2682 27.5089 16.599 27.2574 15.9584C25.4677 11.4141 20.4424 9.11639 17.1457 10.0956C16.2022 10.39 15.3579 10.9384 14.7053 11.6807C13.9708 10.6286 13.0197 9.74602 11.9157 9.09216C10.6623 8.42787 9.28535 8.02921 7.87091 7.92111C6.45647 7.81301 5.03493 7.99778 3.69512 8.46388C2.94767 8.66808 2.25265 9.0301 1.65689 9.52553C1.06113 10.021 0.578455 10.6383 0.241379 11.336C-0.596028 13.456 0.959414 15.8623 3.78667 20.2307C4.08825 20.6974 4.40329 21.1542 4.71563 21.6138C3.97065 21.8897 3.2468 22.2197 2.54986 22.6011C1.58971 23.0642 0.81486 23.839 0.351777 24.7992C0.067076 25.7806 -0.0461791 26.8039 0.0169937 27.8239C0.024833 34.7247 2.76966 41.3407 7.64929 46.2203C12.5289 51.1 19.1449 53.8448 26.0457 53.8526H27.8408C34.7417 53.8448 41.3576 51.1 46.2373 46.2203C51.1169 41.3407 53.8617 34.7247 53.8696 27.8239C53.8551 27.685 53.8225 27.5486 53.7726 27.4182C52.9762 25.6063 51.5185 24.1666 49.6969 23.3927ZM34.9512 24.1861C36.5138 24.6098 38.1276 25.0478 39.2324 23.9842C40.3229 22.9394 39.911 21.4298 39.5125 19.9695C39.114 18.5092 38.7092 17.0228 39.4084 15.6711C40.1199 14.4592 41.2637 13.5614 42.6099 13.158C43.0564 13.0047 43.5292 12.9429 44.0002 12.9762C44.4711 13.0095 44.9305 13.1373 45.351 13.3519C47.1577 14.3697 47.155 17.6161 46.7117 19.5503C46.5092 20.2586 46.1437 20.9097 45.6445 21.4513C45.1526 22.0661 44.5405 22.8299 44.9884 23.7365C45.421 24.6008 46.3553 24.6708 47.1793 24.7318C47.8208 24.7529 48.4559 24.8678 49.0641 25.0729C49.9966 25.4534 50.7979 26.0975 51.3699 26.9263H42.381C42.5874 25.7927 42.8145 24.6582 43.0766 23.5417C43.5658 21.4567 44.1617 19.3699 44.8475 17.3406L43.1475 16.7661C42.4429 18.8493 41.8308 20.9909 41.3282 23.1306C41.0347 24.3827 40.7816 25.6554 40.5572 26.9263H34.786C35.0277 26.0338 35.0839 25.1012 34.9512 24.1861ZM28.7384 21.5411V19.8268C29.7397 19.9977 30.6725 20.4479 31.4293 21.1256C32.1861 21.8033 32.7361 22.681 33.0161 23.6575L31.1474 24.2804L31.7146 25.9857L33.2072 25.4885C33.1781 25.9791 33.0798 26.4631 32.9155 26.9263H22.7661C22.5594 26.3505 22.4544 25.7431 22.4556 25.1312C22.4559 24.9514 22.4652 24.7717 22.4834 24.5927L23.967 25.0873L24.5343 23.3819L22.9654 22.8587C23.3344 22.0697 23.889 21.3818 24.5817 20.8538C25.2744 20.3258 26.0847 19.9734 26.9433 19.8268V21.5411H28.7384ZM17.6582 11.8198C20.1049 11.091 24.1887 13.0701 25.588 16.6207C25.7877 17.1287 25.9231 17.6597 25.991 18.2013C24.1641 18.6807 22.6013 19.864 21.6446 21.4925C20.6879 23.121 20.415 25.0622 20.8858 26.8913L20.8113 26.9263H16.6718C17.0559 26.5269 17.432 26.1185 17.774 25.6877C19.895 22.9606 21.2045 19.6909 21.5526 16.2537L19.7683 16.058C19.4517 19.1588 18.2734 22.1091 16.3666 24.5748C16.3164 24.6385 16.2553 24.6941 16.2042 24.7543C17.5222 21.0175 17.3349 16.9145 15.6818 13.3133C16.1608 12.6139 16.8546 12.0897 17.6582 11.8198ZM1.91171 11.9993C2.16086 11.5472 2.50021 11.1511 2.90873 10.8355C3.31725 10.5199 3.78623 10.2916 4.2866 10.1647C5.38333 9.7867 6.54531 9.63499 7.70232 9.71876C8.85933 9.80253 9.98734 10.12 11.0182 10.6521C15.312 13.1311 16.2939 20.2746 14.2736 24.7651C14.2027 24.923 14.1192 25.0684 14.0384 25.2138C13.8652 24.4823 13.6704 23.758 13.4335 23.0516C11.967 18.7528 9.40669 14.9098 6.0045 11.9006L4.8 13.2307C7.97275 16.0341 10.3616 19.6147 11.7317 23.6207C12.0901 24.7006 12.3682 25.8055 12.5637 26.9263H11.0119C8.93683 24.5009 7.02647 21.9393 5.29365 19.2586C2.74373 15.3157 1.43511 13.2029 1.91171 11.9975V11.9993ZM1.99159 25.5235C2.2889 24.9218 2.78972 24.4448 3.40522 24.1772C4.16313 23.7611 4.9571 23.4145 5.77742 23.1414C6.70907 24.4392 7.67692 25.7009 8.68097 26.9263H1.85965C1.76517 26.4559 1.81105 25.9681 1.99159 25.5235ZM27.8408 52.0575H26.0457C19.776 52.0505 13.7525 49.6167 9.23771 45.2662C4.72296 40.9158 2.06759 34.9866 1.82824 28.7214H52.0583C51.819 34.9866 49.1636 40.9158 44.6488 45.2662C40.1341 49.6167 34.1105 52.0505 27.8408 52.0575Z" fill="#75492A"/>
<path d="M28.7383 23.3359H26.9432V25.131H28.7383V23.3359Z" fill="#75492A"/>
<path d="M28.7384 10.7703V12.5654C28.7384 12.8034 28.833 13.0317 29.0013 13.2C29.1696 13.3683 29.3979 13.4629 29.6359 13.4629H33.2261C35.3678 13.4605 37.421 12.6087 38.9354 11.0943C40.4498 9.57993 41.3016 7.52667 41.304 5.38501V3.58993C41.304 3.35188 41.2094 3.12359 41.0411 2.95527C40.8728 2.78695 40.6445 2.69238 40.4065 2.69238H36.8163C34.6746 2.69476 32.6214 3.54658 31.107 5.06096C29.5926 6.57535 28.7408 8.62861 28.7384 10.7703ZM36.8163 4.48747H39.5089V5.38501C39.507 7.05073 38.8445 8.64768 37.6666 9.82552C36.4888 11.0034 34.8918 11.6659 33.2261 11.6678H32.0593L36.5004 7.86133L35.3335 6.49886L30.5407 10.6069C30.5832 8.97033 31.2629 7.41499 32.4351 6.27204C33.6072 5.12908 35.1791 4.48879 36.8163 4.48747Z" fill="#75492A"/>
<path d="M20.6604 5.38501C20.6604 5.91756 20.8183 6.43816 21.1142 6.88096C21.4101 7.32376 21.8306 7.66888 22.3226 7.87268C22.8146 8.07648 23.356 8.1298 23.8783 8.0259C24.4007 7.92201 24.8804 7.66556 25.257 7.28899C25.6336 6.91242 25.89 6.43264 25.9939 5.91032C26.0978 5.388 26.0445 4.8466 25.8407 4.35459C25.6369 3.86257 25.2918 3.44204 24.849 3.14617C24.4062 2.8503 23.8856 2.69238 23.353 2.69238C22.6389 2.69238 21.954 2.97607 21.4491 3.48104C20.9441 3.986 20.6604 4.67088 20.6604 5.38501ZM24.2506 5.38501C24.2506 5.56253 24.1979 5.73606 24.0993 5.88366C24.0007 6.03126 23.8605 6.1463 23.6965 6.21423C23.5325 6.28217 23.352 6.29994 23.1779 6.26531C23.0038 6.23068 22.8439 6.14519 22.7184 6.01967C22.5928 5.89415 22.5074 5.73422 22.4727 5.56011C22.4381 5.38601 22.4559 5.20554 22.5238 5.04154C22.5917 4.87753 22.7068 4.73736 22.8544 4.63873C23.002 4.54011 23.1755 4.48747 23.353 4.48747C23.5911 4.48747 23.8194 4.58203 23.9877 4.75035C24.156 4.91868 24.2506 5.14697 24.2506 5.38501Z" fill="#75492A"/>
<path d="M8.99243 2.69263C8.99243 3.22518 9.15035 3.74577 9.44622 4.18857C9.74209 4.63137 10.1626 4.97649 10.6546 5.18029C11.1466 5.38409 11.688 5.43741 12.2104 5.33352C12.7327 5.22962 13.2125 4.97318 13.589 4.5966C13.9656 4.22003 14.2221 3.74025 14.326 3.21793C14.4298 2.69562 14.3765 2.15422 14.1727 1.6622C13.9689 1.17019 13.6238 0.74966 13.181 0.45379C12.7382 0.15792 12.2176 0 11.6851 0C10.9709 0 10.286 0.283687 9.78108 0.788653C9.27612 1.29362 8.99243 1.9785 8.99243 2.69263ZM12.5826 2.69263C12.5826 2.87015 12.53 3.04368 12.4313 3.19128C12.3327 3.33888 12.1925 3.45392 12.0285 3.52185C11.8645 3.58978 11.6841 3.60756 11.51 3.57293C11.3359 3.53829 11.1759 3.45281 11.0504 3.32729C10.9249 3.20176 10.8394 3.04184 10.8048 2.86773C10.7701 2.69362 10.7879 2.51316 10.8558 2.34915C10.9238 2.18515 11.0388 2.04497 11.1864 1.94635C11.334 1.84773 11.5075 1.79509 11.6851 1.79509C11.9231 1.79509 12.1514 1.88965 12.3197 2.05797C12.488 2.22629 12.5826 2.45459 12.5826 2.69263Z" fill="#75492A"/>
<path d="M7.96473 37.231L6.42993 38.1626C8.87361 42.1943 12.434 45.4308 16.6799 47.48L17.4607 45.8644C13.5274 43.965 10.229 40.9662 7.96473 37.231Z" fill="#75492A"/>
<path d="M20.6604 46.6724H18.8654V48.4674H20.6604V46.6724Z" fill="#75492A"/>
</svg>
